<svg xmlns="http://www.w3.org/2000/svg" width="1280" height="720" viewBox="0 0 1280 720" role="img" aria-label="AdvancedRAG AI interface preview">
  <rect width="1280" height="720" fill="#101114"/>
  <rect x="28" y="28" width="300" height="664" rx="8" fill="#17191f" stroke="#2d313b"/>
  <rect x="352" y="28" width="596" height="664" rx="8" fill="#121419" stroke="#2d313b"/>
  <rect x="972" y="28" width="280" height="664" rx="8" fill="#17191f" stroke="#2d313b"/>
  <rect x="54" y="56" width="42" height="42" rx="8" fill="#4fb3a5"/>
  <text x="108" y="73" fill="#f2f4f8" font-family="Inter, Arial" font-size="20" font-weight="700">AdvancedRAG AI</text>
  <text x="108" y="94" fill="#a7adbb" font-family="Inter, Arial" font-size="12">Source-grounded document intelligence</text>
  <rect x="54" y="130" width="248" height="120" rx="8" fill="#20232b" stroke="#4fb3a5" stroke-dasharray="7 7"/>
  <text x="116" y="196" fill="#f2f4f8" font-family="Inter, Arial" font-size="17">Drop PDF or document</text>
  <text x="54" y="298" fill="#f2f4f8" font-family="Inter, Arial" font-size="16" font-weight="700">Documents</text>
  <rect x="54" y="324" width="248" height="54" rx="8" fill="#1d2a2a" stroke="#4fb3a5"/>
  <text x="84" y="348" fill="#f2f4f8" font-family="Inter, Arial" font-size="14">research-paper.pdf</text>
  <text x="84" y="367" fill="#a7adbb" font-family="Inter, Arial" font-size="12">42 chunks</text>
  <text x="384" y="72" fill="#a7adbb" font-family="Inter, Arial" font-size="12">MULTI-DOCUMENT RAG</text>
  <text x="384" y="102" fill="#f2f4f8" font-family="Inter, Arial" font-size="26" font-weight="700">Ask across your knowledge base</text>
  <rect x="404" y="170" width="478" height="78" rx="8" fill="#1e222b" stroke="#2d313b"/>
  <text x="426" y="203" fill="#f2f4f8" font-family="Inter, Arial" font-size="15">Summarize the compliance risks from the uploaded documents.</text>
  <rect x="404" y="278" width="504" height="150" rx="8" fill="#1e222b" stroke="#2d313b"/>
  <text x="426" y="315" fill="#f2f4f8" font-family="Inter, Arial" font-size="15">The documents identify three main risk areas...</text>
  <rect x="426" y="370" width="158" height="30" rx="15" fill="#20232b" stroke="#2d313b"/>
  <text x="444" y="390" fill="#f0b35b" font-family="Inter, Arial" font-size="12">research-paper.pdf p.7</text>
  <rect x="384" y="620" width="532" height="48" rx="8" fill="#17191f" stroke="#2d313b"/>
  <text x="418" y="650" fill="#a7adbb" font-family="Inter, Arial" font-size="14">Ask about uploaded contracts, papers, notes...</text>
  <text x="1000" y="72" fill="#f2f4f8" font-family="Inter, Arial" font-size="16" font-weight="700">Source Viewer</text>
  <rect x="1000" y="116" width="224" height="172" rx="8" fill="#20232b"/>
  <text x="1018" y="148" fill="#f2f4f8" font-family="Inter, Arial" font-size="15">research-paper.pdf</text>
  <text x="1018" y="174" fill="#a7adbb" font-family="Inter, Arial" font-size="12">Page 7 · doc:7:2</text>
  <text x="1018" y="214" fill="#f2f4f8" font-family="Inter, Arial" font-size="13">Retrieved source passage appears here</text>
  <text x="1018" y="236" fill="#f2f4f8" font-family="Inter, Arial" font-size="13">for citation inspection.</text>
</svg>
